<?xml version="1.0" encoding="utf-8" standalone="no"?>
<!DOCTYPE svg PUBLIC "-//W3C//DTD SVG 1.1//EN"
  "http://www.w3.org/Graphics/SVG/1.1/DTD/svg11.dtd">
<svg xmlns:xlink="http://www.w3.org/1999/xlink" width="798.74675pt" height="490.759575pt" viewBox="0 0 798.74675 490.759575" xmlns="http://www.w3.org/2000/svg" version="1.1">
 <metadata>
  <rdf:RDF xmlns:dc="http://purl.org/dc/elements/1.1/" xmlns:cc="http://creativecommons.org/ns#" xmlns:rdf="http://www.w3.org/1999/02/22-rdf-syntax-ns#">
   <cc:Work>
    <dc:type rdf:resource="http://purl.org/dc/dcmitype/StillImage"/>
    <dc:date>2024-01-24T10:37:42.962528</dc:date>
    <dc:format>image/svg+xml</dc:format>
    <dc:creator>
     <cc:Agent>
      <dc:title>Matplotlib v3.7.2, https://matplotlib.org/</dc:title>
     </cc:Agent>
    </dc:creator>
   </cc:Work>
  </rdf:RDF>
 </metadata>
 <defs>
  <style type="text/css">*{stroke-linejoin: round; stroke-linecap: butt}</style>
 </defs>
 <g id="figure_1">
  <g id="patch_1">
   <path d="M 0 490.759575 
L 798.74675 490.759575 
L 798.74675 0 
L 0 0 
z
" style="fill: #f0f0f0"/>
  </g>
  <g id="axes_1">
   <g id="patch_2">
    <path d="M 39.86675 378.43845 
L 791.54675 378.43845 
L 791.54675 28.51845 
L 39.86675 28.51845 
z
" style="fill: #f0f0f0"/>
   </g>
   <g id="matplotlib.axis_1">
    <g id="xtick_1">
     <g id="line2d_1">
      <path d="M 74.034023 378.43845 
L 74.034023 28.51845 
" clip-path="url(#pa613a3b8e5)" style="fill: none; stroke: #cbcbcb"/>
     </g>
     <g id="line2d_2"/>
     <g id="text_1">
      <!-- 2016-08-24 -->
      <g transform="translate(77.897148 463.300325) rotate(-90) scale(0.14 -0.14)">
       <defs>
        <path id="DejaVuSans-32" d="M 1228 531 
L 3431 531 
L 3431 0 
L 469 0 
L 469 531 
Q 828 903 1448 1529 
Q 2069 2156 2228 2338 
Q 2531 2678 2651 2914 
Q 2772 3150 2772 3378 
Q 2772 3750 2511 3984 
Q 2250 4219 1831 4219 
Q 1534 4219 1204 4116 
Q 875 4013 500 3803 
L 500 4441 
Q 881 4594 1212 4672 
Q 1544 4750 1819 4750 
Q 2544 4750 2975 4387 
Q 3406 4025 3406 3419 
Q 3406 3131 3298 2873 
Q 3191 2616 2906 2266 
Q 2828 2175 2409 1742 
Q 1991 1309 1228 531 
z
" transform="scale(0.015625)"/>
        <path id="DejaVuSans-30" d="M 2034 4250 
Q 1547 4250 1301 3770 
Q 1056 3291 1056 2328 
Q 1056 1369 1301 889 
Q 1547 409 2034 409 
Q 2525 409 2770 889 
Q 3016 1369 3016 2328 
Q 3016 3291 2770 3770 
Q 2525 4250 2034 4250 
z
M 2034 4750 
Q 2819 4750 3233 4129 
Q 3647 3509 3647 2328 
Q 3647 1150 3233 529 
Q 2819 -91 2034 -91 
Q 1250 -91 836 529 
Q 422 1150 422 2328 
Q 422 3509 836 4129 
Q 1250 4750 2034 4750 
z
" transform="scale(0.015625)"/>
        <path id="DejaVuSans-31" d="M 794 531 
L 1825 531 
L 1825 4091 
L 703 3866 
L 703 4441 
L 1819 4666 
L 2450 4666 
L 2450 531 
L 3481 531 
L 3481 0 
L 794 0 
L 794 531 
z
" transform="scale(0.015625)"/>
        <path id="DejaVuSans-36" d="M 2113 2584 
Q 1688 2584 1439 2293 
Q 1191 2003 1191 1497 
Q 1191 994 1439 701 
Q 1688 409 2113 409 
Q 2538 409 2786 701 
Q 3034 994 3034 1497 
Q 3034 2003 2786 2293 
Q 2538 2584 2113 2584 
z
M 3366 4563 
L 3366 3988 
Q 3128 4100 2886 4159 
Q 2644 4219 2406 4219 
Q 1781 4219 1451 3797 
Q 1122 3375 1075 2522 
Q 1259 2794 1537 2939 
Q 1816 3084 2150 3084 
Q 2853 3084 3261 2657 
Q 3669 2231 3669 1497 
Q 3669 778 3244 343 
Q 2819 -91 2113 -91 
Q 1303 -91 875 529 
Q 447 1150 447 2328 
Q 447 3434 972 4092 
Q 1497 4750 2381 4750 
Q 2619 4750 2861 4703 
Q 3103 4656 3366 4563 
z
" transform="scale(0.015625)"/>
        <path id="DejaVuSans-2d" d="M 313 2009 
L 1997 2009 
L 1997 1497 
L 313 1497 
L 313 2009 
z
" transform="scale(0.015625)"/>
        <path id="DejaVuSans-38" d="M 2034 2216 
Q 1584 2216 1326 1975 
Q 1069 1734 1069 1313 
Q 1069 891 1326 650 
Q 1584 409 2034 409 
Q 2484 409 2743 651 
Q 3003 894 3003 1313 
Q 3003 1734 2745 1975 
Q 2488 2216 2034 2216 
z
M 1403 2484 
Q 997 2584 770 2862 
Q 544 3141 544 3541 
Q 544 4100 942 4425 
Q 1341 4750 2034 4750 
Q 2731 4750 3128 4425 
Q 3525 4100 3525 3541 
Q 3525 3141 3298 2862 
Q 3072 2584 2669 2484 
Q 3125 2378 3379 2068 
Q 3634 1759 3634 1313 
Q 3634 634 3220 271 
Q 2806 -91 2034 -91 
Q 1263 -91 848 271 
Q 434 634 434 1313 
Q 434 1759 690 2068 
Q 947 2378 1403 2484 
z
M 1172 3481 
Q 1172 3119 1398 2916 
Q 1625 2713 2034 2713 
Q 2441 2713 2670 2916 
Q 2900 3119 2900 3481 
Q 2900 3844 2670 4047 
Q 2441 4250 2034 4250 
Q 1625 4250 1398 4047 
Q 1172 3844 1172 3481 
z
" transform="scale(0.015625)"/>
        <path id="DejaVuSans-34" d="M 2419 4116 
L 825 1625 
L 2419 1625 
L 2419 4116 
z
M 2253 4666 
L 3047 4666 
L 3047 1625 
L 3713 1625 
L 3713 1100 
L 3047 1100 
L 3047 0 
L 2419 0 
L 2419 1100 
L 313 1100 
L 313 1709 
L 2253 4666 
z
" transform="scale(0.015625)"/>
       </defs>
       <use xlink:href="#DejaVuSans-32"/>
       <use xlink:href="#DejaVuSans-30" x="63.623047"/>
       <use xlink:href="#DejaVuSans-31" x="127.246094"/>
       <use xlink:href="#DejaVuSans-36" x="190.869141"/>
       <use xlink:href="#DejaVuSans-2d" x="254.492188"/>
       <use xlink:href="#DejaVuSans-30" x="290.576172"/>
       <use xlink:href="#DejaVuSans-38" x="354.199219"/>
       <use xlink:href="#DejaVuSans-2d" x="417.822266"/>
       <use xlink:href="#DejaVuSans-32" x="453.90625"/>
       <use xlink:href="#DejaVuSans-34" x="517.529297"/>
      </g>
     </g>
    </g>
    <g id="xtick_2">
     <g id="line2d_3">
      <path d="M 227.802127 378.43845 
L 227.802127 28.51845 
" clip-path="url(#pa613a3b8e5)" style="fill: none; stroke: #cbcbcb"/>
     </g>
     <g id="line2d_4"/>
     <g id="text_2">
      <!-- 2016-11-10 -->
      <g transform="translate(231.665252 463.300325) rotate(-90) scale(0.14 -0.14)">
       <use xlink:href="#DejaVuSans-32"/>
       <use xlink:href="#DejaVuSans-30" x="63.623047"/>
       <use xlink:href="#DejaVuSans-31" x="127.246094"/>
       <use xlink:href="#DejaVuSans-36" x="190.869141"/>
       <use xlink:href="#DejaVuSans-2d" x="254.492188"/>
       <use xlink:href="#DejaVuSans-31" x="290.576172"/>
       <use xlink:href="#DejaVuSans-31" x="354.199219"/>
       <use xlink:href="#DejaVuSans-2d" x="417.822266"/>
       <use xlink:href="#DejaVuSans-31" x="453.90625"/>
       <use xlink:href="#DejaVuSans-30" x="517.529297"/>
      </g>
     </g>
    </g>
    <g id="xtick_3">
     <g id="line2d_5">
      <path d="M 381.570231 378.43845 
L 381.570231 28.51845 
" clip-path="url(#pa613a3b8e5)" style="fill: none; stroke: #cbcbcb"/>
     </g>
     <g id="line2d_6"/>
     <g id="text_3">
      <!-- 2017-01-29 -->
      <g transform="translate(385.433356 463.300325) rotate(-90) scale(0.14 -0.14)">
       <defs>
        <path id="DejaVuSans-37" d="M 525 4666 
L 3525 4666 
L 3525 4397 
L 1831 0 
L 1172 0 
L 2766 4134 
L 525 4134 
L 525 4666 
z
" transform="scale(0.015625)"/>
        <path id="DejaVuSans-39" d="M 703 97 
L 703 672 
Q 941 559 1184 500 
Q 1428 441 1663 441 
Q 2288 441 2617 861 
Q 2947 1281 2994 2138 
Q 2813 1869 2534 1725 
Q 2256 1581 1919 1581 
Q 1219 1581 811 2004 
Q 403 2428 403 3163 
Q 403 3881 828 4315 
Q 1253 4750 1959 4750 
Q 2769 4750 3195 4129 
Q 3622 3509 3622 2328 
Q 3622 1225 3098 567 
Q 2575 -91 1691 -91 
Q 1453 -91 1209 -44 
Q 966 3 703 97 
z
M 1959 2075 
Q 2384 2075 2632 2365 
Q 2881 2656 2881 3163 
Q 2881 3666 2632 3958 
Q 2384 4250 1959 4250 
Q 1534 4250 1286 3958 
Q 1038 3666 1038 3163 
Q 1038 2656 1286 2365 
Q 1534 2075 1959 2075 
z
" transform="scale(0.015625)"/>
       </defs>
       <use xlink:href="#DejaVuSans-32"/>
       <use xlink:href="#DejaVuSans-30" x="63.623047"/>
       <use xlink:href="#DejaVuSans-31" x="127.246094"/>
       <use xlink:href="#DejaVuSans-37" x="190.869141"/>
       <use xlink:href="#DejaVuSans-2d" x="254.492188"/>
       <use xlink:href="#DejaVuSans-30" x="290.576172"/>
       <use xlink:href="#DejaVuSans-31" x="354.199219"/>
       <use xlink:href="#DejaVuSans-2d" x="417.822266"/>
       <use xlink:href="#DejaVuSans-32" x="453.90625"/>
       <use xlink:href="#DejaVuSans-39" x="517.529297"/>
      </g>
     </g>
    </g>
    <g id="xtick_4">
     <g id="line2d_7">
      <path d="M 535.338335 378.43845 
L 535.338335 28.51845 
" clip-path="url(#pa613a3b8e5)" style="fill: none; stroke: #cbcbcb"/>
     </g>
     <g id="line2d_8"/>
     <g id="text_4">
      <!-- 2017-04-19 -->
      <g transform="translate(539.20146 463.300325) rotate(-90) scale(0.14 -0.14)">
       <use xlink:href="#DejaVuSans-32"/>
       <use xlink:href="#DejaVuSans-30" x="63.623047"/>
       <use xlink:href="#DejaVuSans-31" x="127.246094"/>
       <use xlink:href="#DejaVuSans-37" x="190.869141"/>
       <use xlink:href="#DejaVuSans-2d" x="254.492188"/>
       <use xlink:href="#DejaVuSans-30" x="290.576172"/>
       <use xlink:href="#DejaVuSans-34" x="354.199219"/>
       <use xlink:href="#DejaVuSans-2d" x="417.822266"/>
       <use xlink:href="#DejaVuSans-31" x="453.90625"/>
       <use xlink:href="#DejaVuSans-39" x="517.529297"/>
      </g>
     </g>
    </g>
    <g id="xtick_5">
     <g id="line2d_9">
      <path d="M 689.106439 378.43845 
L 689.106439 28.51845 
" clip-path="url(#pa613a3b8e5)" style="fill: none; stroke: #cbcbcb"/>
     </g>
     <g id="line2d_10"/>
     <g id="text_5">
      <!-- 2017-07-11 -->
      <g transform="translate(692.969564 463.300325) rotate(-90) scale(0.14 -0.14)">
       <use xlink:href="#DejaVuSans-32"/>
       <use xlink:href="#DejaVuSans-30" x="63.623047"/>
       <use xlink:href="#DejaVuSans-31" x="127.246094"/>
       <use xlink:href="#DejaVuSans-37" x="190.869141"/>
       <use xlink:href="#DejaVuSans-2d" x="254.492188"/>
       <use xlink:href="#DejaVuSans-30" x="290.576172"/>
       <use xlink:href="#DejaVuSans-37" x="354.199219"/>
       <use xlink:href="#DejaVuSans-2d" x="417.822266"/>
       <use xlink:href="#DejaVuSans-31" x="453.90625"/>
       <use xlink:href="#DejaVuSans-31" x="517.529297"/>
      </g>
     </g>
    </g>
    <g id="text_6">
     <!-- Date -->
     <g transform="translate(395.629437 480.0657) scale(0.168 -0.168)">
      <defs>
       <path id="DejaVuSans-44" d="M 1259 4147 
L 1259 519 
L 2022 519 
Q 2988 519 3436 956 
Q 3884 1394 3884 2338 
Q 3884 3275 3436 3711 
Q 2988 4147 2022 4147 
L 1259 4147 
z
M 628 4666 
L 1925 4666 
Q 3281 4666 3915 4102 
Q 4550 3538 4550 2338 
Q 4550 1131 3912 565 
Q 3275 0 1925 0 
L 628 0 
L 628 4666 
z
" transform="scale(0.015625)"/>
       <path id="DejaVuSans-61" d="M 2194 1759 
Q 1497 1759 1228 1600 
Q 959 1441 959 1056 
Q 959 750 1161 570 
Q 1363 391 1709 391 
Q 2188 391 2477 730 
Q 2766 1069 2766 1631 
L 2766 1759 
L 2194 1759 
z
M 3341 1997 
L 3341 0 
L 2766 0 
L 2766 531 
Q 2569 213 2275 61 
Q 1981 -91 1556 -91 
Q 1019 -91 701 211 
Q 384 513 384 1019 
Q 384 1609 779 1909 
Q 1175 2209 1959 2209 
L 2766 2209 
L 2766 2266 
Q 2766 2663 2505 2880 
Q 2244 3097 1772 3097 
Q 1472 3097 1187 3025 
Q 903 2953 641 2809 
L 641 3341 
Q 956 3463 1253 3523 
Q 1550 3584 1831 3584 
Q 2591 3584 2966 3190 
Q 3341 2797 3341 1997 
z
" transform="scale(0.015625)"/>
       <path id="DejaVuSans-74" d="M 1172 4494 
L 1172 3500 
L 2356 3500 
L 2356 3053 
L 1172 3053 
L 1172 1153 
Q 1172 725 1289 603 
Q 1406 481 1766 481 
L 2356 481 
L 2356 0 
L 1766 0 
Q 1100 0 847 248 
Q 594 497 594 1153 
L 594 3053 
L 172 3053 
L 172 3500 
L 594 3500 
L 594 4494 
L 1172 4494 
z
" transform="scale(0.015625)"/>
       <path id="DejaVuSans-65" d="M 3597 1894 
L 3597 1613 
L 953 1613 
Q 991 1019 1311 708 
Q 1631 397 2203 397 
Q 2534 397 2845 478 
Q 3156 559 3463 722 
L 3463 178 
Q 3153 47 2828 -22 
Q 2503 -91 2169 -91 
Q 1331 -91 842 396 
Q 353 884 353 1716 
Q 353 2575 817 3079 
Q 1281 3584 2069 3584 
Q 2775 3584 3186 3129 
Q 3597 2675 3597 1894 
z
M 3022 2063 
Q 3016 2534 2758 2815 
Q 2500 3097 2075 3097 
Q 1594 3097 1305 2825 
Q 1016 2553 972 2059 
L 3022 2063 
z
" transform="scale(0.015625)"/>
      </defs>
      <use xlink:href="#DejaVuSans-44"/>
      <use xlink:href="#DejaVuSans-61" x="77.001953"/>
      <use xlink:href="#DejaVuSans-74" x="138.28125"/>
      <use xlink:href="#DejaVuSans-65" x="177.490234"/>
     </g>
    </g>
   </g>
   <g id="matplotlib.axis_2">
    <g id="ytick_1">
     <g id="line2d_11">
      <path d="M 39.86675 362.532995 
L 791.54675 362.532995 
" clip-path="url(#pa613a3b8e5)" style="fill: none; stroke: #cbcbcb"/>
     </g>
     <g id="line2d_12"/>
     <g id="text_7">
      <!-- 0 -->
      <g transform="translate(27.45925 367.851902) scale(0.14 -0.14)">
       <use xlink:href="#DejaVuSans-30"/>
      </g>
     </g>
    </g>
    <g id="ytick_2">
     <g id="line2d_13">
      <path d="M 39.86675 315.054027 
L 791.54675 315.054027 
" clip-path="url(#pa613a3b8e5)" style="fill: none; stroke: #cbcbcb"/>
     </g>
     <g id="line2d_14"/>
     <g id="text_8">
      <!-- 1 -->
      <g transform="translate(27.45925 320.372933) scale(0.14 -0.14)">
       <use xlink:href="#DejaVuSans-31"/>
      </g>
     </g>
    </g>
    <g id="ytick_3">
     <g id="line2d_15">
      <path d="M 39.86675 267.575058 
L 791.54675 267.575058 
" clip-path="url(#pa613a3b8e5)" style="fill: none; stroke: #cbcbcb"/>
     </g>
     <g id="line2d_16"/>
     <g id="text_9">
      <!-- 2 -->
      <g transform="translate(27.45925 272.893964) scale(0.14 -0.14)">
       <use xlink:href="#DejaVuSans-32"/>
      </g>
     </g>
    </g>
    <g id="ytick_4">
     <g id="line2d_17">
      <path d="M 39.86675 220.096089 
L 791.54675 220.096089 
" clip-path="url(#pa613a3b8e5)" style="fill: none; stroke: #cbcbcb"/>
     </g>
     <g id="line2d_18"/>
     <g id="text_10">
      <!-- 3 -->
      <g transform="translate(27.45925 225.414995) scale(0.14 -0.14)">
       <defs>
        <path id="DejaVuSans-33" d="M 2597 2516 
Q 3050 2419 3304 2112 
Q 3559 1806 3559 1356 
Q 3559 666 3084 287 
Q 2609 -91 1734 -91 
Q 1441 -91 1130 -33 
Q 819 25 488 141 
L 488 750 
Q 750 597 1062 519 
Q 1375 441 1716 441 
Q 2309 441 2620 675 
Q 2931 909 2931 1356 
Q 2931 1769 2642 2001 
Q 2353 2234 1838 2234 
L 1294 2234 
L 1294 2753 
L 1863 2753 
Q 2328 2753 2575 2939 
Q 2822 3125 2822 3475 
Q 2822 3834 2567 4026 
Q 2313 4219 1838 4219 
Q 1578 4219 1281 4162 
Q 984 4106 628 3988 
L 628 4550 
Q 988 4650 1302 4700 
Q 1616 4750 1894 4750 
Q 2613 4750 3031 4423 
Q 3450 4097 3450 3541 
Q 3450 3153 3228 2886 
Q 3006 2619 2597 2516 
z
" transform="scale(0.015625)"/>
       </defs>
       <use xlink:href="#DejaVuSans-33"/>
      </g>
     </g>
    </g>
    <g id="ytick_5">
     <g id="line2d_19">
      <path d="M 39.86675 172.61712 
L 791.54675 172.61712 
" clip-path="url(#pa613a3b8e5)" style="fill: none; stroke: #cbcbcb"/>
     </g>
     <g id="line2d_20"/>
     <g id="text_11">
      <!-- 4 -->
      <g transform="translate(27.45925 177.936027) scale(0.14 -0.14)">
       <use xlink:href="#DejaVuSans-34"/>
      </g>
     </g>
    </g>
    <g id="ytick_6">
     <g id="line2d_21">
      <path d="M 39.86675 125.138151 
L 791.54675 125.138151 
" clip-path="url(#pa613a3b8e5)" style="fill: none; stroke: #cbcbcb"/>
     </g>
     <g id="line2d_22"/>
     <g id="text_12">
      <!-- 5 -->
      <g transform="translate(27.45925 130.457058) scale(0.14 -0.14)">
       <defs>
        <path id="DejaVuSans-35" d="M 691 4666 
L 3169 4666 
L 3169 4134 
L 1269 4134 
L 1269 2991 
Q 1406 3038 1543 3061 
Q 1681 3084 1819 3084 
Q 2600 3084 3056 2656 
Q 3513 2228 3513 1497 
Q 3513 744 3044 326 
Q 2575 -91 1722 -91 
Q 1428 -91 1123 -41 
Q 819 9 494 109 
L 494 744 
Q 775 591 1075 516 
Q 1375 441 1709 441 
Q 2250 441 2565 725 
Q 2881 1009 2881 1497 
Q 2881 1984 2565 2268 
Q 2250 2553 1709 2553 
Q 1456 2553 1204 2497 
Q 953 2441 691 2322 
L 691 4666 
z
" transform="scale(0.015625)"/>
       </defs>
       <use xlink:href="#DejaVuSans-35"/>
      </g>
     </g>
    </g>
    <g id="ytick_7">
     <g id="line2d_23">
      <path d="M 39.86675 77.659183 
L 791.54675 77.659183 
" clip-path="url(#pa613a3b8e5)" style="fill: none; stroke: #cbcbcb"/>
     </g>
     <g id="line2d_24"/>
     <g id="text_13">
      <!-- 6 -->
      <g transform="translate(27.45925 82.978089) scale(0.14 -0.14)">
       <use xlink:href="#DejaVuSans-36"/>
      </g>
     </g>
    </g>
    <g id="ytick_8">
     <g id="line2d_25">
      <path d="M 39.86675 30.180214 
L 791.54675 30.180214 
" clip-path="url(#pa613a3b8e5)" style="fill: none; stroke: #cbcbcb"/>
     </g>
     <g id="line2d_26"/>
     <g id="text_14">
      <!-- 7 -->
      <g transform="translate(27.45925 35.49912) scale(0.14 -0.14)">
       <use xlink:href="#DejaVuSans-37"/>
      </g>
     </g>
    </g>
    <g id="text_15">
     <!-- Inches -->
     <g transform="translate(19.965375 230.766638) rotate(-90) scale(0.168 -0.168)">
      <defs>
       <path id="DejaVuSans-49" d="M 628 4666 
L 1259 4666 
L 1259 0 
L 628 0 
L 628 4666 
z
" transform="scale(0.015625)"/>
       <path id="DejaVuSans-6e" d="M 3513 2113 
L 3513 0 
L 2938 0 
L 2938 2094 
Q 2938 2591 2744 2837 
Q 2550 3084 2163 3084 
Q 1697 3084 1428 2787 
Q 1159 2491 1159 1978 
L 1159 0 
L 581 0 
L 581 3500 
L 1159 3500 
L 1159 2956 
Q 1366 3272 1645 3428 
Q 1925 3584 2291 3584 
Q 2894 3584 3203 3211 
Q 3513 2838 3513 2113 
z
" transform="scale(0.015625)"/>
       <path id="DejaVuSans-63" d="M 3122 3366 
L 3122 2828 
Q 2878 2963 2633 3030 
Q 2388 3097 2138 3097 
Q 1578 3097 1268 2742 
Q 959 2388 959 1747 
Q 959 1106 1268 751 
Q 1578 397 2138 397 
Q 2388 397 2633 464 
Q 2878 531 3122 666 
L 3122 134 
Q 2881 22 2623 -34 
Q 2366 -91 2075 -91 
Q 1284 -91 818 406 
Q 353 903 353 1747 
Q 353 2603 823 3093 
Q 1294 3584 2113 3584 
Q 2378 3584 2631 3529 
Q 2884 3475 3122 3366 
z
" transform="scale(0.015625)"/>
       <path id="DejaVuSans-68" d="M 3513 2113 
L 3513 0 
L 2938 0 
L 2938 2094 
Q 2938 2591 2744 2837 
Q 2550 3084 2163 3084 
Q 1697 3084 1428 2787 
Q 1159 2491 1159 1978 
L 1159 0 
L 581 0 
L 581 4863 
L 1159 4863 
L 1159 2956 
Q 1366 3272 1645 3428 
Q 1925 3584 2291 3584 
Q 2894 3584 3203 3211 
Q 3513 2838 3513 2113 
z
" transform="scale(0.015625)"/>
       <path id="DejaVuSans-73" d="M 2834 3397 
L 2834 2853 
Q 2591 2978 2328 3040 
Q 2066 3103 1784 3103 
Q 1356 3103 1142 2972 
Q 928 2841 928 2578 
Q 928 2378 1081 2264 
Q 1234 2150 1697 2047 
L 1894 2003 
Q 2506 1872 2764 1633 
Q 3022 1394 3022 966 
Q 3022 478 2636 193 
Q 2250 -91 1575 -91 
Q 1294 -91 989 -36 
Q 684 19 347 128 
L 347 722 
Q 666 556 975 473 
Q 1284 391 1588 391 
Q 1994 391 2212 530 
Q 2431 669 2431 922 
Q 2431 1156 2273 1281 
Q 2116 1406 1581 1522 
L 1381 1569 
Q 847 1681 609 1914 
Q 372 2147 372 2553 
Q 372 3047 722 3315 
Q 1072 3584 1716 3584 
Q 2034 3584 2315 3537 
Q 2597 3491 2834 3397 
z
" transform="scale(0.015625)"/>
      </defs>
      <use xlink:href="#DejaVuSans-49"/>
      <use xlink:href="#DejaVuSans-6e" x="29.492188"/>
      <use xlink:href="#DejaVuSans-63" x="92.871094"/>
      <use xlink:href="#DejaVuSans-68" x="147.851562"/>
      <use xlink:href="#DejaVuSans-65" x="211.230469"/>
      <use xlink:href="#DejaVuSans-73" x="272.753906"/>
     </g>
    </g>
   </g>
   <g id="line2d_27">
    <path d="M 74.034023 358.734678 
L 74.341559 260.453213 
L 74.649095 254.280947 
M 75.264168 304.608654 
L 75.571704 260.453213 
L 75.87924 293.688491 
L 76.186776 358.734678 
L 76.494312 358.734678 
L 76.801849 362.532995 
L 77.109385 362.532995 
L 77.416921 352.562412 
L 77.724457 359.684257 
L 78.031993 357.310309 
L 78.33953 362.532995 
L 78.647066 361.108626 
L 78.954602 361.583416 
L 79.262138 360.633837 
L 79.569674 362.532995 
L 79.877211 362.058206 
L 80.184747 362.532995 
L 80.492283 353.986781 
L 80.799819 361.583416 
L 81.107356 362.532995 
L 81.414892 356.835519 
M 82.029964 362.058206 
L 82.3375 355.88594 
L 82.952573 355.88594 
L 83.260109 334.045614 
L 83.567645 264.25153 
L 83.875181 362.532995 
L 84.182718 354.461571 
L 84.490254 360.633837 
M 85.105326 362.532995 
L 85.412862 345.915356 
L 85.720399 319.801924 
L 86.027935 362.532995 
L 86.335471 362.532995 
L 86.643007 361.583416 
L 86.950543 362.532995 
L 87.25808 362.532995 
L 87.565616 360.159047 
L 87.873152 356.36073 
L 88.180688 357.785099 
M 89.103297 350.663253 
L 89.410833 351.138043 
L 89.718369 245.734732 
L 90.025906 362.532995 
L 90.640978 362.532995 
M 91.25605 361.583416 
L 91.871123 362.532995 
L 92.178659 361.583416 
L 92.486195 353.511991 
M 93.408804 362.058206 
L 93.71634 361.108626 
L 94.023876 362.532995 
L 94.331412 359.209468 
L 94.638949 358.734678 
L 94.946485 356.835519 
L 95.254021 315.054027 
L 95.561557 361.108626 
L 95.869094 361.108626 
L 96.17663 327.398559 
L 96.484166 355.88594 
L 96.791702 341.642249 
M 98.021847 361.583416 
L 98.329383 361.108626 
L 98.636919 353.986781 
M 99.251992 360.159047 
L 99.867064 361.108626 
L 100.1746 357.310309 
L 100.482137 315.054027 
L 100.789673 360.159047 
L 101.097209 357.785099 
L 101.404745 351.612833 
L 101.712281 357.310309 
L 102.019818 354.93636 
L 102.327354 298.436388 
L 102.63489 362.532995 
L 102.942426 352.087622 
L 103.249963 362.058206 
M 103.865035 362.058206 
L 104.480107 355.41115 
L 104.787644 361.108626 
L 105.09518 362.058206 
L 105.402716 348.764095 
M 106.017788 351.612833 
L 106.325325 354.93636 
L 106.632861 345.915356 
L 106.940397 362.532995 
L 107.247933 362.058206 
L 107.555469 355.88594 
L 107.863006 358.259888 
L 108.170542 307.457392 
L 108.478078 360.159047 
L 108.785614 353.986781 
L 109.09315 356.835519 
L 109.400687 348.289305 
L 109.708223 334.045614 
L 110.015759 362.532995 
L 110.323295 360.633837 
M 111.245904 355.41115 
L 111.55344 347.814515 
L 111.860976 313.154868 
L 112.168513 361.583416 
L 112.476049 344.965777 
L 112.783585 347.339725 
M 113.398657 340.69267 
L 113.706194 346.390146 
L 114.01373 305.558233 
L 114.321266 299.860757 
L 114.628802 319.801924 
L 114.936338 275.171693 
M 115.551411 306.033023 
L 115.858947 251.906998 
L 116.166483 44.423905 
L 116.474019 342.591829 
L 116.781556 356.835519 
L 117.089092 359.209468 
M 117.704164 354.461571 
L 118.0117 323.125451 
L 118.319237 203.47845 
L 118.626773 359.684257 
L 118.934309 362.058206 
L 119.241845 359.209468 
L 119.549382 362.532995 
L 119.856918 362.058206 
L 120.164454 359.684257 
L 120.47199 333.570824 
L 120.779526 360.159047 
L 121.087063 360.633837 
L 121.394599 362.532995 
L 121.702135 345.440567 
L 122.009671 351.612833 
L 122.317207 362.532995 
L 122.624744 362.532995 
L 123.239816 359.209468 
L 123.547352 342.591829 
L 123.854888 362.532995 
L 124.162425 362.058206 
M 125.085033 360.159047 
L 125.392569 362.058206 
L 125.700106 350.663253 
L 126.007642 362.532995 
L 126.315178 358.259888 
L 126.622714 350.663253 
L 126.930251 362.532995 
L 127.237787 360.633837 
L 127.852859 342.117039 
L 128.160395 362.532995 
L 128.467932 359.684257 
L 128.775468 361.583416 
L 129.083004 362.532995 
L 129.39054 359.209468 
L 129.698076 314.104447 
L 130.005613 361.583416 
L 130.620685 354.461571 
L 130.928221 359.684257 
L 131.235757 362.058206 
L 131.85083 326.923769 
L 132.158366 362.532995 
L 132.465902 355.41115 
L 132.773438 355.41115 
L 133.080975 362.532995 
L 133.388511 362.532995 
L 133.696047 317.902765 
L 134.003583 346.864936 
L 134.31112 362.532995 
L 135.233728 362.532995 
L 135.541264 362.058206 
L 135.848801 349.713674 
L 136.156337 362.532995 
L 136.463873 361.583416 
L 136.771409 362.532995 
L 137.078945 362.532995 
L 137.386482 361.108626 
L 137.694018 360.633837 
L 138.001554 359.684257 
L 138.30909 359.684257 
L 138.616626 361.583416 
M 139.231699 346.390146 
L 139.539235 354.461571 
L 139.846771 314.104447 
L 140.154307 361.583416 
L 140.461844 356.835519 
L 140.76938 362.532995 
L 141.076916 360.159047 
L 141.384452 354.461571 
L 141.691989 315.054027 
L 141.999525 362.532995 
L 142.307061 358.734678 
L 142.614597 362.532995 
L 143.537206 362.532995 
L 143.844742 360.159047 
L 144.152278 362.532995 
L 144.459814 339.268301 
L 144.767351 353.037202 
L 145.074887 360.633837 
L 145.382423 353.986781 
L 145.689959 334.520404 
L 145.997495 291.789332 
L 146.305032 362.532995 
L 146.612568 347.814515 
L 146.920104 359.684257 
M 147.535176 355.41115 
L 148.150249 344.490987 
L 148.457785 362.532995 
L 148.765321 355.88594 
L 149.072858 358.734678 
L 149.380394 359.209468 
L 149.68793 355.88594 
L 149.995466 314.104447 
L 150.303002 362.532995 
L 150.610539 361.583416 
L 150.918075 361.108626 
L 151.225611 362.532995 
L 151.533147 359.684257 
L 151.840683 333.570824 
L 152.14822 362.532995 
L 152.455756 360.633837 
L 152.763292 361.108626 
M 153.378364 362.532995 
L 153.685901 354.93636 
L 153.993437 340.69267 
L 154.300973 362.532995 
L 154.916045 362.532995 
M 155.531118 362.532995 
L 155.838654 361.108626 
L 156.14619 198.255763 
L 156.453727 362.532995 
L 157.068799 362.532995 
M 157.683871 362.532995 
L 157.991408 362.058206 
L 158.298944 324.075031 
L 158.60648 362.532995 
L 158.914016 360.159047 
L 159.221552 362.532995 
L 159.529089 359.209468 
L 159.836625 362.532995 
L 160.144161 362.532995 
L 160.451697 360.633837 
L 160.759233 362.532995 
L 161.374306 362.532995 
M 161.989378 362.532995 
L 162.296914 362.532995 
L 162.604451 362.058206 
L 162.911987 362.532995 
L 163.834596 362.532995 
L 164.142132 360.633837 
L 164.449668 362.532995 
L 166.294885 362.532995 
M 166.909958 362.532995 
L 167.832566 362.532995 
L 168.447639 360.633837 
M 169.062711 362.532995 
L 169.370247 349.238884 
L 169.677783 345.915356 
L 169.98532 362.532995 
L 170.292856 361.108626 
L 170.600392 362.532995 
L 170.907928 362.532995 
L 171.215465 361.108626 
L 171.523001 361.583416 
L 171.830537 362.532995 
L 172.138073 362.532995 
L 172.445609 361.583416 
M 173.060682 362.532995 
L 173.368218 362.532995 
L 173.675754 359.684257 
L 173.98329 362.532995 
L 176.136044 362.532995 
L 176.44358 361.583416 
L 176.751116 362.532995 
L 177.058652 360.633837 
L 177.366189 346.864936 
L 177.673725 362.532995 
L 178.90387 362.532995 
L 179.211406 362.058206 
L 179.518942 361.108626 
M 180.441551 356.835519 
L 180.749087 362.058206 
L 181.056623 344.490987 
L 181.364159 362.532995 
L 181.671696 360.159047 
L 181.979232 361.108626 
M 182.594304 361.583416 
L 182.90184 361.583416 
L 183.209377 339.74309 
L 183.516913 362.532995 
L 183.824449 359.684257 
L 184.131985 362.532995 
M 184.747058 362.532995 
L 185.054594 357.310309 
L 185.36213 362.532995 
L 185.977202 362.532995 
L 186.284739 362.058206 
M 186.899811 362.532995 
L 187.207347 315.054027 
L 187.514884 360.159047 
L 187.82242 355.41115 
L 188.129956 361.108626 
M 189.052565 362.532995 
L 189.667637 355.41115 
L 189.975173 357.785099 
L 190.282709 362.532995 
L 190.590246 355.41115 
L 190.897782 297.486808 
L 191.205318 362.058206 
L 191.512854 362.058206 
M 192.127927 362.532995 
L 192.435463 361.583416 
L 192.742999 351.138043 
L 193.050535 362.532995 
L 193.358071 362.532995 
L 193.665608 362.058206 
M 194.28068 362.532995 
L 194.588216 358.734678 
L 194.895753 329.297717 
L 195.203289 361.108626 
L 195.510825 360.633837 
L 195.818361 362.532995 
L 196.125897 343.541408 
L 196.433434 356.835519 
L 196.74097 357.310309 
L 197.048506 343.541408 
L 197.356042 362.532995 
L 197.663578 359.684257 
L 197.971115 353.037202 
L 198.278651 361.583416 
L 198.893723 362.532995 
L 199.201259 362.532995 
L 199.816332 353.037202 
M 200.431404 358.734678 
L 200.73894 352.087622 
L 201.046477 303.184284 
L 201.354013 362.532995 
L 201.661549 361.583416 
L 201.969085 359.209468 
M 202.584158 359.684257 
L 202.891694 360.159047 
L 203.19923 344.965777 
L 203.506766 362.532995 
L 203.814303 361.583416 
L 204.121839 350.188464 
L 204.429375 362.058206 
L 204.736911 357.785099 
L 205.044447 350.663253 
L 205.351984 351.138043 
L 205.65952 357.785099 
L 205.967056 355.88594 
L 206.274592 362.532995 
L 206.582128 354.93636 
L 206.889665 317.427975 
L 207.197201 361.108626 
L 207.504737 361.108626 
L 207.812273 362.532995 
M 208.427346 356.36073 
L 208.734882 359.209468 
L 209.042418 298.436388 
L 209.349954 362.532995 
L 209.657491 362.058206 
L 209.965027 362.532995 
L 210.272563 362.058206 
L 210.580099 357.785099 
L 210.887635 358.259888 
L 211.195172 362.532995 
L 212.425316 362.532995 
L 212.732853 360.633837 
L 213.040389 362.532995 
L 214.270534 362.532995 
L 214.57807 361.583416 
L 214.885606 362.532995 
L 215.500678 362.532995 
M 216.115751 362.532995 
L 216.423287 362.532995 
L 216.730823 359.684257 
L 217.03836 362.532995 
L 217.345896 361.583416 
L 217.653432 362.532995 
L 217.960968 361.583416 
L 218.268504 361.108626 
L 218.576041 344.490987 
L 218.883577 362.532995 
L 219.191113 361.583416 
L 219.498649 362.532995 
L 219.806185 362.532995 
L 220.113722 362.058206 
L 220.421258 360.159047 
L 220.728794 362.532995 
L 221.03633 362.532995 
L 221.343866 356.36073 
M 221.958939 362.532995 
L 222.266475 362.532995 
L 222.574011 360.159047 
L 222.881547 359.209468 
L 223.189084 355.88594 
L 223.49662 361.583416 
L 223.804156 355.41115 
L 224.111692 352.562412 
L 224.419229 337.369142 
L 224.726765 362.532995 
L 225.341837 354.461571 
L 225.649373 362.532995 
L 225.95691 362.532995 
L 226.264446 357.310309 
L 226.571982 360.633837 
L 226.879518 362.532995 
L 228.109663 362.532995 
L 228.417199 362.058206 
L 228.724735 362.532995 
L 234.260387 362.532995 
L 234.567923 359.684257 
L 234.87546 360.159047 
L 235.490532 362.532995 
L 235.798068 362.532995 
L 236.105604 361.583416 
L 236.413141 362.532995 
L 237.028213 362.532995 
M 237.643285 362.532995 
L 237.950822 362.532995 
L 238.258358 360.159047 
L 238.565894 362.532995 
L 238.87343 355.88594 
L 239.180967 353.986781 
M 239.796039 359.209468 
L 240.103575 351.138043 
L 240.411111 319.327134 
L 240.718648 362.532995 
L 241.026184 361.108626 
L 241.33372 362.532995 
M 241.948792 362.532995 
L 242.563865 361.583416 
L 242.871401 362.532995 
L 243.178937 362.058206 
M 243.79401 361.583416 
L 244.101546 362.532995 
L 244.409082 361.108626 
L 244.716618 357.310309 
L 245.024154 356.36073 
L 245.331691 357.310309 
L 245.639227 360.159047 
L 245.946763 357.310309 
L 246.254299 343.541408 
L 246.561836 344.016198 
M 247.176908 362.058206 
L 247.484444 361.583416 
M 248.099517 359.209468 
L 248.407053 357.310309 
L 248.714589 226.268355 
L 249.022125 356.36073 
L 249.329661 343.066618 
M 250.25227 347.814515 
L 250.559806 265.201109 
L 250.867342 262.352371 
L 251.174879 355.88594 
L 251.482415 361.108626 
M 252.097487 361.108626 
L 252.405023 350.663253 
L 252.71256 352.087622 
L 253.020096 360.159047 
L 253.327632 353.037202 
L 253.635168 352.562412 
L 253.942705 348.289305 
L 254.250241 328.348138 
L 254.557777 360.159047 
L 254.865313 360.159047 
M 255.480386 357.310309 
L 255.787922 358.734678 
L 256.095458 313.629658 
L 256.402994 360.159047 
L 256.71053 360.159047 
L 257.018067 361.583416 
L 257.325603 361.108626 
L 257.633139 359.684257 
L 257.940675 348.289305 
L 258.248211 362.532995 
L 258.555748 359.684257 
L 259.17082 362.532995 
L 259.785892 348.764095 
L 260.093429 362.058206 
L 260.400965 361.583416 
L 260.708501 362.532995 
M 261.323574 362.532995 
L 261.63111 362.532995 
L 261.938646 329.772507 
L 262.246182 362.532995 
L 262.553718 360.633837 
L 262.861255 360.633837 
M 263.476327 359.684257 
L 263.783863 358.259888 
L 264.091399 353.037202 
L 264.398936 355.88594 
L 264.706472 360.159047 
L 265.014008 361.108626 
M 265.62908 362.532995 
L 265.936617 360.159047 
L 266.244153 325.02461 
L 266.551689 356.835519 
L 266.859225 346.864936 
L 267.166761 359.209468 
M 267.781834 354.93636 
L 268.08937 344.965777 
L 268.396906 328.348138 
L 268.704442 361.108626 
L 269.011979 348.289305 
L 269.319515 343.541408 
M 269.934587 362.058206 
L 270.242124 345.915356 
L 270.54966 302.234705 
L 270.857196 362.532995 
L 271.164732 360.633837 
L 271.472268 350.188464 
L 271.779805 361.583416 
L 272.394877 285.617066 
L 272.702413 361.108626 
L 273.009949 357.785099 
L 273.317486 362.532995 
L 273.625022 347.339725 
L 273.932558 360.633837 
L 274.240094 347.814515 
L 274.54763 342.117039 
L 274.855167 346.390146 
L 275.162703 353.037202 
M 275.777775 341.167459 
L 276.085311 352.087622 
L 276.392848 286.566645 
L 276.700384 361.583416 
L 277.00792 361.583416 
M 277.622993 362.532995 
L 278.545601 362.532995 
L 278.853137 354.461571 
M 279.775746 359.209468 
L 280.083282 356.835519 
L 280.390818 361.583416 
L 280.698355 361.108626 
L 281.005891 361.108626 
L 281.313427 361.583416 
L 281.620963 349.713674 
L 281.928499 362.058206 
L 282.236036 359.209468 
L 282.543572 361.108626 
L 282.851108 337.843932 
L 283.158644 346.390146 
L 283.46618 350.188464 
M 284.081253 347.814515 
L 284.388789 342.591829 
L 284.696325 360.159047 
L 285.311398 362.532995 
M 285.92647 361.583416 
L 286.234006 360.633837 
L 286.541543 360.633837 
L 286.849079 361.583416 
L 287.156615 359.684257 
L 287.464151 362.532995 
L 287.771687 356.36073 
L 288.079224 362.058206 
L 288.38676 362.058206 
M 289.001832 361.583416 
L 289.309368 362.532995 
L 289.616905 362.532995 
L 289.924441 362.058206 
L 290.539513 357.785099 
L 290.847049 346.390146 
M 291.462122 355.41115 
L 291.769658 360.633837 
L 292.077194 358.259888 
L 292.384731 361.108626 
L 292.692267 360.159047 
L 292.999803 356.835519 
M 293.614875 360.159047 
L 293.922412 318.852344 
L 294.229948 346.864936 
L 294.537484 362.532995 
L 294.84502 361.583416 
L 295.152556 359.209468 
M 295.767629 362.532995 
L 296.075165 355.88594 
L 296.382701 361.108626 
L 296.690237 362.532995 
L 296.997774 362.058206 
L 297.30531 362.532995 
M 297.920382 362.532995 
L 298.227918 361.108626 
L 298.535455 362.532995 
L 298.842991 362.058206 
L 299.150527 357.310309 
L 299.458063 362.532995 
L 299.7656 354.93636 
L 300.073136 359.209468 
L 300.380672 356.36073 
L 300.688208 348.764095 
L 300.995744 360.633837 
L 301.303281 349.713674 
L 301.610817 354.93636 
M 302.225889 362.058206 
L 302.533425 352.562412 
L 302.840962 362.532995 
M 303.456034 361.583416 
L 303.76357 361.108626 
L 304.071106 355.41115 
L 304.378643 362.532995 
L 304.686179 361.583416 
L 304.993715 362.532995 
M 305.608787 362.058206 
L 305.916324 362.532995 
L 306.531396 362.532995 
L 306.838932 361.108626 
L 307.146469 358.259888 
L 307.454005 359.684257 
L 307.761541 359.684257 
L 308.069077 357.310309 
L 308.376613 336.419563 
L 308.68415 362.058206 
L 308.991686 354.461571 
L 309.299222 360.159047 
M 309.914294 355.88594 
L 310.221831 321.701082 
L 310.529367 303.659074 
L 310.836903 362.058206 
L 311.144439 357.785099 
L 311.451975 361.108626 
M 312.067048 361.583416 
L 312.374584 351.138043 
L 312.68212 323.125451 
L 312.989656 362.058206 
L 313.297193 355.88594 
L 313.604729 356.36073 
L 313.912265 359.684257 
L 314.219801 353.037202 
L 314.527338 311.255709 
L 314.834874 362.532995 
L 315.14241 361.108626 
L 315.449946 362.532995 
L 315.757482 361.583416 
L 316.065019 344.490987 
L 316.372555 361.583416 
L 316.680091 350.188464 
M 317.295163 359.684257 
L 317.6027 352.087622 
L 317.910236 292.264122 
L 318.217772 362.532995 
L 318.525308 361.108626 
L 318.832844 361.583416 
L 319.140381 362.532995 
L 319.447917 360.159047 
L 319.755453 355.88594 
L 320.062989 361.583416 
L 320.370525 358.259888 
L 320.678062 362.058206 
M 321.293134 359.684257 
L 321.60067 358.259888 
L 321.908207 355.88594 
L 322.215743 360.633837 
L 322.523279 353.986781 
L 322.830815 335.944773 
M 323.445888 360.159047 
L 324.06096 313.629658 
L 324.368496 356.835519 
L 324.983569 348.764095 
M 325.598641 359.209468 
L 325.906177 348.764095 
L 326.213713 250.007839 
L 326.52125 362.058206 
L 326.828786 333.096035 
L 327.136322 345.440567 
L 327.443858 350.663253 
L 327.751394 319.801924 
L 328.058931 362.532995 
L 328.366467 348.764095 
L 328.674003 362.532995 
M 329.289076 361.108626 
L 329.596612 361.108626 
L 329.904148 362.532995 
L 330.211684 362.532995 
L 330.51922 362.058206 
L 330.826757 362.058206 
L 331.134293 362.532995 
L 332.056901 362.532995 
M 332.671974 362.532995 
L 333.902119 362.532995 
L 334.209655 353.986781 
L 334.517191 362.532995 
L 335.747336 362.532995 
L 336.054872 342.591829 
L 336.362408 359.684257 
L 336.669945 340.21788 
L 336.977481 362.532995 
L 337.285017 362.532995 
L 337.592553 334.520404 
L 337.900089 362.058206 
L 338.207626 357.785099 
L 338.515162 357.785099 
L 338.822698 362.532995 
L 339.130234 359.684257 
L 339.43777 362.532995 
L 340.975451 362.532995 
L 341.282988 361.108626 
L 341.590524 362.532995 
L 341.89806 362.532995 
L 342.205596 361.108626 
L 342.513132 362.532995 
L 343.128205 362.532995 
M 343.743277 362.532995 
L 345.280958 362.532995 
M 345.896031 362.532995 
L 347.433712 362.532995 
M 348.048784 362.532995 
L 348.971393 362.532995 
M 349.894001 362.532995 
L 350.81661 362.532995 
M 351.739219 362.532995 
L 352.969364 362.532995 
L 353.2769 362.058206 
L 353.584436 362.532995 
L 354.199508 362.532995 
M 354.814581 362.532995 
L 355.122117 362.058206 
L 355.429653 362.532995 
L 355.737189 362.532995 
M 356.352262 362.532995 
L 360.042696 362.532995 
M 360.657769 362.532995 
L 360.965305 359.209468 
L 361.272841 362.532995 
L 361.887914 362.532995 
M 362.502986 362.532995 
L 362.810522 361.583416 
L 363.118058 362.532995 
L 364.040667 362.532995 
M 364.655739 362.532995 
L 365.578348 362.532995 
L 365.885884 360.633837 
L 366.19342 361.583416 
L 366.500957 357.310309 
L 366.808493 361.108626 
L 367.116029 358.734678 
L 367.423565 354.93636 
L 367.731102 362.058206 
L 368.038638 360.633837 
L 368.346174 358.259888 
L 368.65371 328.348138 
L 368.961246 362.532995 
L 369.268783 358.734678 
M 370.191391 362.532995 
L 370.498927 362.058206 
L 370.806464 322.175872 
L 371.114 360.633837 
L 371.421536 355.41115 
M 372.036608 358.734678 
L 372.344145 356.36073 
L 372.651681 274.696903 
L 372.959217 361.108626 
L 373.266753 356.835519 
M 374.189362 362.532995 
L 374.496898 325.02461 
L 374.804434 237.188518 
L 375.111971 362.532995 
L 375.419507 362.532995 
L 375.727043 362.058206 
L 376.034579 362.532995 
L 376.649652 362.532995 
L 376.957188 357.785099 
L 377.264724 362.532995 
L 378.494869 362.532995 
L 378.802405 361.108626 
L 379.109941 361.108626 
L 379.417477 362.532995 
L 379.725014 355.88594 
L 380.03255 362.532995 
L 380.647622 362.532995 
L 380.955158 353.986781 
L 381.262695 362.532995 
M 381.877767 350.188464 
L 382.185303 336.419563 
L 382.49284 362.532995 
L 382.800376 362.532995 
M 383.415448 360.159047 
L 383.722984 362.532995 
L 393.871679 362.532995 
M 394.486752 362.532995 
L 394.794288 362.532995 
M 395.40936 362.532995 
L 396.331969 362.532995 
L 396.639505 354.93636 
L 396.947041 360.633837 
M 397.562114 362.532995 
L 397.86965 353.986781 
L 398.177186 362.532995 
L 398.792259 311.255709 
L 399.099795 319.801924 
L 399.407331 362.532995 
L 399.714867 277.070852 
L 400.022403 299.860757 
L 400.32994 277.545641 
L 400.637476 362.532995 
L 400.945012 311.255709 
L 401.252548 362.532995 
L 402.790229 362.532995 
L 403.097765 361.583416 
L 403.405302 362.532995 
L 406.7882 362.532995 
L 407.095736 347.814515 
L 407.403272 315.054027 
L 407.710809 249.05826 
L 408.018345 123.238993 
L 408.325881 280.394379 
L 408.633417 327.873348 
L 408.940953 238.138097 
L 409.24849 311.730499 
L 409.556026 271.848165 
L 409.863562 359.209468 
L 410.171098 221.045668 
L 410.478634 275.646483 
L 410.786171 362.058206 
L 411.093707 224.843986 
L 411.401243 362.532995 
M 412.016316 362.532995 
L 412.323852 362.058206 
L 412.631388 362.532995 
L 414.169069 362.532995 
L 414.476605 362.058206 
L 414.784141 362.532995 
L 415.399214 362.532995 
M 416.321822 362.058206 
L 416.629359 359.209468 
L 416.936895 359.209468 
L 417.244431 362.532995 
L 417.551967 333.096035 
M 418.16704 330.722086 
L 418.474576 327.873348 
L 418.782112 356.36073 
L 419.089648 362.532995 
L 419.397184 324.54982 
L 419.704721 359.684257 
L 420.012257 362.532995 
L 420.627329 356.36073 
L 420.934866 362.532995 
L 421.242402 362.532995 
L 421.549938 362.058206 
L 421.857474 362.532995 
M 422.472547 362.532995 
L 422.780083 362.532995 
L 423.087619 358.259888 
L 423.395155 357.785099 
L 423.702691 362.532995 
L 424.010228 362.532995 
M 424.932836 362.532995 
L 425.240372 362.532995 
L 425.547909 359.684257 
L 425.855445 362.532995 
L 426.162981 362.532995 
M 426.778053 362.532995 
L 427.08559 359.209468 
L 427.393126 359.684257 
L 427.700662 359.684257 
L 428.315735 354.461571 
L 428.623271 356.36073 
L 428.930807 359.684257 
L 429.238343 347.339725 
L 429.545879 362.058206 
L 429.853416 362.532995 
L 433.54385 362.532995 
L 433.851386 361.108626 
L 434.158922 362.532995 
L 434.466459 362.532995 
L 434.773995 356.835519 
L 435.081531 362.532995 
L 435.389067 362.532995 
M 436.311676 362.532995 
L 437.541821 362.532995 
M 438.156893 362.532995 
L 439.079502 362.532995 
L 439.387038 354.93636 
L 439.694574 360.633837 
M 440.309647 362.532995 
L 440.617183 360.633837 
L 441.232255 306.033023 
L 441.539791 258.079264 
L 441.847328 309.35655 
L 442.154864 248.58347 
L 442.4624 334.520404 
L 442.769936 261.877582 
L 443.077473 267.575058 
L 443.385009 327.873348 
L 443.692545 293.688491 
L 444.000081 341.642249 
L 444.307617 292.264122 
L 444.615154 273.272534 
L 444.92269 334.995194 
L 445.230226 340.21788 
L 445.537762 336.894352 
M 446.152835 355.88594 
L 446.460371 350.663253 
L 446.767907 349.713674 
L 447.075443 335.944773 
L 447.382979 362.532995 
L 448.613124 362.532995 
L 448.92066 345.915356 
L 449.228197 357.785099 
L 449.535733 343.066618 
L 449.843269 345.915356 
L 450.150805 362.532995 
L 450.458342 338.318721 
M 451.688486 361.108626 
L 451.996023 362.532995 
L 452.918631 362.532995 
M 453.533704 362.532995 
L 454.763848 362.532995 
M 455.378921 362.532995 
L 455.993993 362.532995 
L 456.301529 324.54982 
L 456.609066 338.793511 
L 456.916602 362.532995 
M 457.531674 331.671666 
L 457.839211 362.058206 
L 458.146747 362.532995 
L 458.454283 356.36073 
L 458.761819 356.36073 
L 459.069355 362.532995 
L 459.376892 362.532995 
L 459.684428 361.108626 
L 459.991964 362.532995 
L 460.2995 362.532995 
L 460.607036 361.108626 
L 460.914573 362.532995 
L 461.222109 362.058206 
L 461.529645 362.532995 
L 462.144717 362.532995 
M 462.75979 362.532995 
L 463.989935 362.532995 
M 464.605007 362.532995 
L 464.912543 362.532995 
M 465.527616 362.532995 
L 466.142688 362.532995 
L 466.450224 359.684257 
L 466.757761 362.532995 
L 468.602978 362.532995 
L 468.910514 359.684257 
L 469.21805 362.532995 
L 469.833123 362.532995 
M 470.755731 362.532995 
L 471.67834 362.532995 
L 471.985876 353.511991 
L 472.293412 359.684257 
M 472.908485 345.915356 
L 473.216021 356.835519 
L 473.523557 362.532995 
L 474.753702 362.532995 
M 475.368774 362.532995 
L 477.213992 362.532995 
M 477.829064 362.532995 
L 478.1366 361.583416 
L 478.444136 362.532995 
L 479.674281 362.532995 
L 479.981818 358.259888 
L 480.289354 362.532995 
L 483.05718 362.532995 
L 483.364716 361.583416 
L 483.672252 362.532995 
L 483.979788 361.108626 
L 484.287324 361.583416 
L 484.594861 334.045614 
L 484.902397 355.41115 
L 485.209933 359.209468 
L 485.825005 354.461571 
L 486.132542 362.532995 
L 486.440078 356.36073 
L 486.747614 342.117039 
L 487.05515 318.377554 
L 487.670223 362.532995 
L 489.51544 362.532995 
M 490.130512 362.532995 
L 490.438049 362.058206 
L 490.745585 362.532995 
L 491.053121 362.532995 
L 491.360657 361.108626 
L 491.668193 362.532995 
M 492.283266 362.532995 
L 492.590802 362.532995 
L 492.898338 330.247297 
L 493.205874 362.532995 
L 493.513411 362.532995 
L 493.820947 361.108626 
M 494.436019 358.734678 
L 494.743555 362.058206 
L 495.051092 359.209468 
L 495.358628 362.532995 
L 495.666164 358.734678 
L 495.9737 361.108626 
M 496.588773 362.532995 
L 496.896309 360.633837 
L 497.203845 362.532995 
L 498.43399 362.532995 
L 498.741526 362.058206 
M 499.356599 362.532995 
L 500.279207 362.532995 
L 500.586743 352.562412 
L 500.89428 353.037202 
L 501.201816 362.532995 
L 503.047033 362.532995 
L 503.354569 358.734678 
L 503.662106 358.259888 
M 504.277178 362.532995 
L 504.584714 350.188464 
L 504.89225 351.612833 
L 505.199787 362.532995 
L 505.507323 360.633837 
L 505.814859 362.532995 
L 506.429931 362.532995 
L 506.737468 358.259888 
L 507.045004 361.583416 
L 507.35254 362.532995 
L 507.967612 359.209468 
L 508.275149 362.532995 
L 508.582685 362.532995 
L 508.890221 357.785099 
L 509.197757 341.167459 
L 509.505293 362.532995 
L 510.735438 362.532995 
L 511.042975 359.684257 
L 511.350511 362.532995 
L 514.118337 362.532995 
M 514.733409 362.532995 
L 515.040945 362.532995 
M 515.963554 362.532995 
L 516.578626 362.532995 
L 516.886162 362.058206 
L 517.193699 362.532995 
M 517.808771 362.532995 
L 518.116307 362.058206 
L 518.423844 362.532995 
L 518.73138 362.532995 
L 519.038916 361.108626 
L 519.346452 354.93636 
M 519.961525 362.532995 
L 520.269061 361.108626 
L 520.576597 350.663253 
L 520.884133 362.532995 
L 521.191669 361.108626 
L 521.499206 348.764095 
M 522.114278 362.532995 
L 522.421814 357.310309 
L 522.72935 331.671666 
L 523.036887 362.532995 
L 523.344423 349.713674 
L 523.651959 362.532995 
M 524.267031 362.532995 
L 524.574568 334.520404 
L 524.882104 351.612833 
L 525.18964 350.188464 
L 525.497176 329.772507 
L 525.804713 348.764095 
L 526.112249 345.440567 
L 526.419785 253.331367 
L 526.727321 228.642303 
L 527.034857 362.058206 
L 527.342394 341.167459 
L 527.64993 362.532995 
L 527.957466 344.490987 
L 528.265002 319.801924 
L 528.572538 362.532995 
L 528.880075 339.268301 
L 529.187611 362.532995 
L 529.495147 340.21788 
L 529.802683 357.310309 
L 530.110219 361.583416 
L 530.417756 343.066618 
M 531.340364 348.289305 
L 531.6479 313.154868 
L 531.955437 300.810336 
L 532.262973 362.532995 
L 532.570509 358.734678 
L 532.878045 356.835519 
L 533.185582 362.532995 
L 533.493118 355.41115 
L 533.800654 266.150689 
L 534.415726 361.583416 
L 534.723263 361.583416 
L 535.030799 362.532995 
M 535.645871 362.532995 
L 535.953407 361.583416 
L 536.260944 355.88594 
L 536.56848 360.159047 
L 536.876016 346.864936 
L 537.183552 362.532995 
M 537.798625 345.915356 
L 538.106161 360.159047 
L 538.413697 362.532995 
L 538.721233 351.612833 
L 539.028769 307.457392 
L 539.336306 312.680078 
M 539.951378 250.482629 
L 540.258914 279.91959 
L 540.566451 275.171693 
L 540.873987 347.339725 
L 541.181523 314.579237 
L 541.489059 329.297717 
L 541.796595 287.516225 
L 542.104132 298.436388 
L 542.411668 361.108626 
L 542.719204 361.583416 
L 543.02674 359.684257 
L 543.334276 345.915356 
L 543.641813 362.532995 
L 543.949349 362.532995 
M 545.179494 362.058206 
L 545.48703 360.159047 
L 545.794566 362.532995 
L 546.409638 362.532995 
M 547.024711 362.532995 
L 548.254856 362.532995 
L 548.562392 355.88594 
L 548.869928 362.058206 
L 549.177464 361.583416 
L 549.485001 352.087622 
L 549.792537 362.532995 
L 550.100073 357.785099 
L 550.407609 361.583416 
M 551.022682 362.532995 
L 551.330218 353.511991 
L 551.637754 357.310309 
L 551.94529 362.532995 
L 552.252826 239.087677 
L 552.560363 358.259888 
M 553.175435 362.532995 
L 553.482971 326.448979 
L 553.790507 325.02461 
L 554.098044 356.835519 
L 554.40558 345.915356 
L 554.713116 317.427975 
L 555.020652 65.789441 
L 555.328189 344.965777 
L 555.635725 362.532995 
L 555.943261 320.276713 
L 556.250797 305.083443 
L 556.558333 306.982602 
L 556.86587 300.335546 
L 557.480942 324.54982 
L 557.788478 350.188464 
L 558.096014 359.209468 
L 558.403551 361.108626 
L 558.711087 359.209468 
L 559.018623 356.36073 
L 559.326159 350.663253 
L 559.633695 362.532995 
L 559.941232 361.108626 
L 560.248768 362.058206 
L 560.556304 362.532995 
L 560.86384 362.058206 
L 561.171376 362.532995 
L 561.478913 362.532995 
L 561.786449 362.058206 
L 562.093985 362.058206 
L 562.401521 362.532995 
L 562.709058 362.058206 
L 563.016594 362.532995 
L 563.32413 362.532995 
L 563.631666 358.734678 
L 563.939202 362.532995 
L 564.246739 362.532995 
M 564.861811 362.532995 
L 565.169347 362.532995 
L 565.476883 349.238884 
L 565.78442 362.532995 
L 566.091956 362.532995 
L 566.399492 357.785099 
L 566.707028 362.532995 
L 567.014564 362.532995 
L 567.322101 359.684257 
L 567.629637 362.532995 
L 568.552245 362.532995 
L 568.859782 359.209468 
L 569.167318 362.532995 
L 569.474854 361.583416 
L 569.78239 361.108626 
L 570.089926 362.532995 
L 570.397463 352.087622 
L 570.704999 317.427975 
L 571.012535 362.532995 
L 571.320071 327.873348 
L 571.935144 285.617066 
L 572.24268 337.843932 
L 572.550216 330.247297 
L 572.857752 287.516225 
L 573.165289 351.612833 
L 573.472825 362.532995 
L 573.780361 360.159047 
L 574.087897 362.532995 
L 574.395433 359.684257 
L 574.70297 353.037202 
L 575.010506 336.419563 
L 575.318042 362.058206 
L 575.625578 361.108626 
L 575.933114 362.532995 
L 576.240651 356.835519 
L 576.548187 341.642249 
L 576.855723 362.532995 
L 577.163259 360.633837 
M 577.778332 362.532995 
L 578.085868 361.583416 
L 578.393404 357.785099 
L 578.70094 362.532995 
L 579.008477 361.583416 
L 579.316013 362.532995 
L 579.623549 356.835519 
L 579.931085 357.785099 
L 580.238621 362.532995 
L 580.546158 360.159047 
L 580.853694 362.532995 
L 581.16123 354.461571 
L 581.468766 315.054027 
L 581.776302 360.159047 
L 582.083839 358.734678 
M 582.698911 359.684257 
L 583.006447 358.259888 
L 583.313983 334.045614 
L 583.62152 362.058206 
L 584.236592 360.159047 
L 584.544128 362.532995 
L 584.851664 361.108626 
L 585.159201 348.289305 
L 585.466737 362.532995 
L 585.774273 361.583416 
L 586.081809 362.532995 
L 586.389346 362.532995 
L 586.696882 359.209468 
L 587.004418 359.684257 
L 587.311954 362.058206 
L 587.927027 354.93636 
L 588.234563 340.69267 
L 588.542099 356.36073 
L 588.849635 362.532995 
L 589.157171 362.532995 
L 589.464708 361.583416 
L 589.772244 362.058206 
L 590.07978 362.058206 
L 590.387316 362.532995 
L 590.694852 362.532995 
L 591.002389 362.058206 
M 592.232533 362.532995 
L 592.847606 362.532995 
L 593.155142 362.058206 
L 593.462678 362.532995 
L 594.077751 362.532995 
M 594.692823 362.532995 
L 595.000359 359.684257 
L 595.307896 348.289305 
L 595.615432 358.734678 
L 595.922968 361.583416 
L 596.230504 357.310309 
L 596.53804 362.532995 
L 596.845577 359.684257 
L 597.153113 341.642249 
L 597.460649 356.36073 
L 597.768185 334.995194 
L 598.075721 357.785099 
L 598.383258 333.570824 
L 598.690794 348.289305 
L 598.99833 259.503633 
L 599.305866 355.41115 
L 599.613402 344.965777 
L 599.920939 359.209468 
L 600.228475 336.419563 
L 600.536011 353.037202 
L 600.843547 320.751503 
L 601.151084 361.583416 
L 601.45862 362.532995 
L 602.381228 362.532995 
L 602.688765 362.058206 
L 602.996301 362.532995 
L 603.918909 362.532995 
L 604.226446 338.793511 
L 604.533982 361.583416 
L 604.841518 348.764095 
L 605.149054 361.583416 
L 605.45659 362.532995 
L 605.764127 358.734678 
L 606.071663 362.532995 
L 606.379199 362.532995 
L 606.686735 361.583416 
L 606.994271 362.532995 
L 607.301808 362.532995 
L 607.609344 343.541408 
L 607.91688 350.188464 
L 608.224416 353.037202 
L 608.531953 360.633837 
L 608.839489 357.310309 
L 609.147025 309.35655 
M 609.762097 361.583416 
L 610.069634 357.785099 
L 610.37717 362.532995 
L 610.684706 362.532995 
L 610.992242 350.663253 
L 611.299778 362.532995 
L 611.607315 361.108626 
L 611.914851 362.532995 
L 612.529923 362.532995 
L 612.837459 362.058206 
L 613.144996 362.532995 
L 613.452532 357.785099 
L 613.760068 355.41115 
M 614.37514 362.532995 
L 614.682677 358.259888 
L 614.990213 361.583416 
L 615.297749 353.037202 
L 615.605285 354.93636 
L 615.912822 355.41115 
L 616.220358 358.734678 
M 616.83543 362.532995 
L 617.142966 355.41115 
L 617.450503 360.159047 
L 617.758039 362.532995 
L 618.065575 356.36073 
L 618.373111 323.600241 
L 618.680647 362.532995 
L 618.988184 362.532995 
L 619.29572 361.583416 
M 619.910792 362.532995 
L 620.218328 360.159047 
L 620.525865 362.058206 
L 620.833401 362.532995 
L 621.448473 362.532995 
M 622.063546 362.532995 
L 623.601227 362.532995 
M 624.216299 362.532995 
L 624.523835 362.532995 
L 624.831372 362.058206 
L 625.138908 362.532995 
L 625.446444 361.583416 
L 625.75398 362.058206 
M 626.369053 362.532995 
L 627.291661 362.532995 
L 627.599197 361.583416 
L 627.906734 362.532995 
M 628.521806 362.532995 
L 629.136878 360.633837 
L 629.444415 352.562412 
L 629.751951 337.369142 
L 630.059487 356.36073 
L 630.367023 333.096035 
M 630.982096 358.734678 
L 631.289632 351.138043 
L 631.597168 355.88594 
L 631.904704 350.663253 
L 632.212241 327.398559 
L 632.519777 329.297717 
L 632.827313 361.583416 
L 633.442385 345.915356 
L 633.749922 355.88594 
L 634.057458 351.138043 
L 634.364994 324.075031 
L 634.67253 362.532995 
L 634.980066 345.440567 
L 635.287603 357.785099 
M 635.902675 361.108626 
L 636.210211 351.138043 
L 636.517747 331.671666 
L 636.825284 362.532995 
L 637.13282 349.713674 
L 637.440356 352.562412 
M 638.055429 359.684257 
L 638.362965 352.087622 
L 638.670501 324.075031 
L 638.978037 362.532995 
L 639.59311 348.289305 
M 640.208182 362.532995 
L 640.515718 336.419563 
L 640.823254 282.293538 
L 641.130791 362.532995 
L 641.438327 361.583416 
L 641.745863 361.583416 
M 642.360935 362.532995 
L 642.976008 357.785099 
L 643.283544 362.532995 
L 643.59108 345.915356 
L 643.898616 361.583416 
L 644.206153 362.532995 
L 644.513689 359.209468 
L 644.821225 357.785099 
L 645.128761 360.159047 
L 645.436298 350.663253 
L 645.743834 353.986781 
L 646.05137 362.532995 
L 646.358906 351.138043 
L 646.666442 329.297717 
L 646.973979 362.532995 
L 647.281515 360.159047 
L 647.589051 353.511991 
M 648.204123 362.058206 
L 648.51166 358.734678 
L 648.819196 343.541408 
L 649.126732 361.583416 
L 649.434268 360.159047 
L 649.741804 354.461571 
M 650.356877 362.532995 
L 650.664413 347.814515 
L 650.971949 362.532995 
L 651.279485 361.583416 
M 652.202094 353.511991 
L 652.50963 348.289305 
L 652.817166 362.532995 
L 653.124703 357.785099 
L 653.432239 362.532995 
L 653.739775 362.532995 
L 654.047311 359.684257 
L 654.354848 349.238884 
L 654.662384 362.532995 
L 654.96992 362.532995 
M 655.584992 362.532995 
L 655.892529 360.159047 
L 656.200065 356.835519 
L 656.507601 338.793511 
L 656.815137 359.684257 
L 657.122673 362.532995 
L 657.43021 362.532995 
L 657.737746 345.440567 
L 658.045282 352.087622 
L 658.352818 362.532995 
L 658.660354 358.734678 
L 658.967891 362.532995 
L 659.275427 361.583416 
L 659.582963 338.793511 
L 659.890499 362.532995 
L 660.198035 361.583416 
M 661.120644 362.532995 
L 661.42818 359.684257 
L 661.735717 361.583416 
L 662.043253 362.532995 
L 662.965861 362.532995 
L 663.273398 362.058206 
L 663.580934 357.785099 
L 663.88847 362.532995 
L 664.196006 362.058206 
L 664.503542 362.532995 
L 665.118615 362.532995 
L 665.426151 361.583416 
L 665.733687 362.532995 
L 666.041223 361.108626 
M 666.656296 362.532995 
L 667.271368 362.532995 
L 667.886441 358.734678 
L 668.501513 362.532995 
L 668.809049 356.835519 
L 669.424122 362.058206 
L 669.731658 353.037202 
L 670.039194 361.583416 
L 670.34673 359.684257 
L 670.961803 357.785099 
L 671.269339 361.583416 
L 671.576875 360.159047 
M 672.191948 355.41115 
L 672.499484 338.793511 
L 672.80702 360.633837 
L 673.114556 356.36073 
M 674.037165 361.583416 
L 674.344701 355.41115 
L 674.652237 343.541408 
L 674.959773 360.633837 
L 675.26731 361.108626 
L 675.574846 358.734678 
L 675.882382 362.532995 
L 676.497455 362.532995 
M 677.727599 362.532995 
L 678.650208 362.532995 
M 679.26528 362.532995 
L 679.572817 362.532995 
L 679.880353 361.583416 
L 680.187889 362.532995 
L 680.495425 361.583416 
M 681.418034 362.532995 
L 682.033106 348.289305 
L 682.340642 362.532995 
L 682.648179 361.583416 
L 682.955715 359.684257 
L 683.263251 362.532995 
L 683.570787 362.532995 
L 683.878324 361.583416 
L 684.18586 362.532995 
L 684.493396 358.259888 
L 684.800932 362.532995 
L 685.108468 362.532995 
L 685.416005 357.310309 
L 685.723541 362.532995 
L 686.646149 362.532995 
M 687.261222 362.532995 
L 687.568758 361.583416 
L 687.876294 361.583416 
L 688.18383 362.532995 
L 688.491367 362.058206 
L 688.798903 362.532995 
M 689.413975 362.532995 
L 689.721511 361.583416 
L 690.029048 362.532995 
L 690.336584 362.532995 
L 690.951656 361.583416 
M 691.566729 362.532995 
L 691.874265 349.238884 
L 692.181801 360.159047 
L 692.489337 359.209468 
L 692.796874 346.864936 
L 693.10441 348.289305 
M 693.719482 357.310309 
L 694.027018 347.339725 
L 694.334555 330.247297 
L 694.642091 361.583416 
L 694.949627 360.159047 
L 695.257163 362.532995 
L 695.564699 362.532995 
L 695.872236 353.037202 
L 696.179772 330.247297 
L 696.487308 362.532995 
L 696.794844 361.108626 
L 697.10238 362.058206 
L 697.409917 362.532995 
L 698.024989 357.785099 
L 698.332525 361.583416 
L 698.947598 356.835519 
L 699.255134 362.532995 
L 699.56267 357.785099 
L 699.870206 338.793511 
L 700.177743 361.108626 
L 700.485279 356.835519 
L 700.792815 354.93636 
L 701.100351 362.532995 
L 701.715424 344.016198 
L 702.02296 360.159047 
L 702.330496 361.108626 
L 702.638032 362.532995 
L 703.253105 362.532995 
L 703.560641 360.159047 
L 703.868177 248.58347 
L 704.175713 362.532995 
L 704.483249 358.259888 
L 704.790786 362.532995 
L 705.098322 362.532995 
L 705.405858 360.159047 
L 705.713394 349.713674 
L 706.020931 361.108626 
L 706.328467 356.835519 
L 706.636003 362.532995 
L 706.943539 362.532995 
L 707.251075 346.864936 
L 707.558612 359.684257 
L 707.866148 329.297717 
L 708.173684 362.532995 
L 709.403829 362.532995 
L 709.711365 361.108626 
L 710.018901 357.785099 
L 710.326437 361.108626 
L 710.94151 356.835519 
L 711.249046 362.532995 
L 711.556582 353.037202 
L 711.864118 172.61712 
L 712.171655 362.532995 
L 712.479191 359.684257 
L 712.786727 359.209468 
L 713.094263 353.037202 
L 713.4018 324.54982 
L 713.709336 360.159047 
L 714.324408 306.033023 
M 714.939481 333.570824 
L 715.247017 322.650662 
L 715.554553 362.532995 
L 715.862089 361.108626 
L 716.169625 356.835519 
L 716.477162 362.532995 
L 717.092234 357.310309 
L 717.39977 348.289305 
L 717.707306 362.532995 
L 718.014843 359.684257 
L 718.322379 361.583416 
M 718.937451 362.532995 
L 719.244987 356.835519 
L 719.552524 348.289305 
L 719.86006 362.532995 
L 720.475132 362.532995 
M 721.090205 362.532995 
L 721.397741 362.058206 
L 721.705277 362.532995 
L 722.012813 362.532995 
L 722.32035 356.36073 
L 722.627886 355.88594 
L 722.935422 362.058206 
L 723.242958 362.532995 
L 723.550494 358.259888 
L 723.858031 343.541408 
L 724.165567 362.532995 
L 724.473103 359.684257 
L 724.780639 361.583416 
L 725.088175 362.532995 
L 725.395712 351.612833 
L 725.703248 348.289305 
L 726.010784 362.532995 
L 726.933393 362.532995 
L 727.240929 348.289305 
L 727.548465 362.532995 
L 727.856001 362.532995 
M 728.77861 362.532995 
L 729.393682 362.532995 
L 729.701219 361.583416 
L 730.008755 356.835519 
L 730.316291 362.532995 
M 730.931363 362.532995 
L 731.2389 360.159047 
L 731.546436 362.532995 
L 731.853972 350.663253 
L 732.161508 362.532995 
L 732.469044 362.058206 
L 732.776581 362.532995 
L 733.084117 359.684257 
L 733.391653 361.583416 
L 733.699189 360.633837 
L 734.006725 362.532995 
L 734.621798 362.532995 
L 734.929334 359.684257 
M 735.544406 362.532995 
L 736.467015 362.532995 
M 737.082088 362.532995 
L 737.69716 362.532995 
L 738.004696 360.159047 
L 738.312232 362.532995 
L 738.619769 357.785099 
L 738.927305 362.532995 
L 739.234841 346.390146 
L 739.542377 362.532995 
L 739.849913 362.532995 
L 740.15745 355.41115 
L 740.464986 362.532995 
L 741.080058 362.532995 
L 741.387594 359.209468 
L 741.695131 362.532995 
L 742.310203 362.532995 
M 742.925275 362.532995 
L 743.232812 362.532995 
L 743.540348 355.88594 
L 743.847884 362.532995 
M 744.462957 362.532995 
L 744.770493 362.532995 
M 745.385565 362.532995 
L 745.693101 362.058206 
L 746.000638 358.734678 
L 746.308174 362.532995 
L 746.61571 352.087622 
L 746.923246 361.583416 
L 747.230782 362.532995 
L 747.538319 359.684257 
L 747.845855 347.339725 
L 748.153391 342.591829 
L 748.460927 362.532995 
L 749.076 356.835519 
L 749.383536 342.591829 
L 749.691072 362.532995 
L 749.998608 360.159047 
L 750.306144 362.058206 
L 750.613681 356.36073 
L 750.921217 362.532995 
L 751.228753 362.532995 
L 751.536289 359.684257 
M 752.151362 362.532995 
L 752.458898 362.532995 
M 753.07397 358.259888 
L 753.381507 362.532995 
L 753.689043 362.058206 
M 754.304115 362.532995 
L 754.611651 361.583416 
M 755.226724 335.944773 
L 755.53426 362.532995 
L 755.841796 362.532995 
L 756.149332 338.793511 
L 756.456869 362.532995 
L 756.764405 362.532995 
L 757.071941 358.734678 
L 757.379477 341.167459 
L 757.379477 341.167459 
" clip-path="url(#pa613a3b8e5)" style="fill: none; stroke: #008fd5; stroke-width: 4"/>
   </g>
   <g id="patch_3">
    <path d="M 39.86675 378.43845 
L 39.86675 28.51845 
" style="fill: none; stroke: #f0f0f0; stroke-width: 3; stroke-linejoin: miter; stroke-linecap: square"/>
   </g>
   <g id="patch_4">
    <path d="M 791.54675 378.43845 
L 791.54675 28.51845 
" style="fill: none; stroke: #f0f0f0; stroke-width: 3; stroke-linejoin: miter; stroke-linecap: square"/>
   </g>
   <g id="patch_5">
    <path d="M 39.86675 378.43845 
L 791.54675 378.43845 
" style="fill: none; stroke: #f0f0f0; stroke-width: 3; stroke-linejoin: miter; stroke-linecap: square"/>
   </g>
   <g id="patch_6">
    <path d="M 39.86675 28.51845 
L 791.54675 28.51845 
" style="fill: none; stroke: #f0f0f0; stroke-width: 3; stroke-linejoin: miter; stroke-linecap: square"/>
   </g>
   <g id="text_16">
    <!-- Precipitation Over the Last 12 Months -->
    <g transform="translate(225.23255 22.51845) scale(0.2016 -0.2016)">
     <defs>
      <path id="DejaVuSans-50" d="M 1259 4147 
L 1259 2394 
L 2053 2394 
Q 2494 2394 2734 2622 
Q 2975 2850 2975 3272 
Q 2975 3691 2734 3919 
Q 2494 4147 2053 4147 
L 1259 4147 
z
M 628 4666 
L 2053 4666 
Q 2838 4666 3239 4311 
Q 3641 3956 3641 3272 
Q 3641 2581 3239 2228 
Q 2838 1875 2053 1875 
L 1259 1875 
L 1259 0 
L 628 0 
L 628 4666 
z
" transform="scale(0.015625)"/>
      <path id="DejaVuSans-72" d="M 2631 2963 
Q 2534 3019 2420 3045 
Q 2306 3072 2169 3072 
Q 1681 3072 1420 2755 
Q 1159 2438 1159 1844 
L 1159 0 
L 581 0 
L 581 3500 
L 1159 3500 
L 1159 2956 
Q 1341 3275 1631 3429 
Q 1922 3584 2338 3584 
Q 2397 3584 2469 3576 
Q 2541 3569 2628 3553 
L 2631 2963 
z
" transform="scale(0.015625)"/>
      <path id="DejaVuSans-69" d="M 603 3500 
L 1178 3500 
L 1178 0 
L 603 0 
L 603 3500 
z
M 603 4863 
L 1178 4863 
L 1178 4134 
L 603 4134 
L 603 4863 
z
" transform="scale(0.015625)"/>
      <path id="DejaVuSans-70" d="M 1159 525 
L 1159 -1331 
L 581 -1331 
L 581 3500 
L 1159 3500 
L 1159 2969 
Q 1341 3281 1617 3432 
Q 1894 3584 2278 3584 
Q 2916 3584 3314 3078 
Q 3713 2572 3713 1747 
Q 3713 922 3314 415 
Q 2916 -91 2278 -91 
Q 1894 -91 1617 61 
Q 1341 213 1159 525 
z
M 3116 1747 
Q 3116 2381 2855 2742 
Q 2594 3103 2138 3103 
Q 1681 3103 1420 2742 
Q 1159 2381 1159 1747 
Q 1159 1113 1420 752 
Q 1681 391 2138 391 
Q 2594 391 2855 752 
Q 3116 1113 3116 1747 
z
" transform="scale(0.015625)"/>
      <path id="DejaVuSans-6f" d="M 1959 3097 
Q 1497 3097 1228 2736 
Q 959 2375 959 1747 
Q 959 1119 1226 758 
Q 1494 397 1959 397 
Q 2419 397 2687 759 
Q 2956 1122 2956 1747 
Q 2956 2369 2687 2733 
Q 2419 3097 1959 3097 
z
M 1959 3584 
Q 2709 3584 3137 3096 
Q 3566 2609 3566 1747 
Q 3566 888 3137 398 
Q 2709 -91 1959 -91 
Q 1206 -91 779 398 
Q 353 888 353 1747 
Q 353 2609 779 3096 
Q 1206 3584 1959 3584 
z
" transform="scale(0.015625)"/>
      <path id="DejaVuSans-20" transform="scale(0.015625)"/>
      <path id="DejaVuSans-4f" d="M 2522 4238 
Q 1834 4238 1429 3725 
Q 1025 3213 1025 2328 
Q 1025 1447 1429 934 
Q 1834 422 2522 422 
Q 3209 422 3611 934 
Q 4013 1447 4013 2328 
Q 4013 3213 3611 3725 
Q 3209 4238 2522 4238 
z
M 2522 4750 
Q 3503 4750 4090 4092 
Q 4678 3434 4678 2328 
Q 4678 1225 4090 567 
Q 3503 -91 2522 -91 
Q 1538 -91 948 565 
Q 359 1222 359 2328 
Q 359 3434 948 4092 
Q 1538 4750 2522 4750 
z
" transform="scale(0.015625)"/>
      <path id="DejaVuSans-76" d="M 191 3500 
L 800 3500 
L 1894 563 
L 2988 3500 
L 3597 3500 
L 2284 0 
L 1503 0 
L 191 3500 
z
" transform="scale(0.015625)"/>
      <path id="DejaVuSans-4c" d="M 628 4666 
L 1259 4666 
L 1259 531 
L 3531 531 
L 3531 0 
L 628 0 
L 628 4666 
z
" transform="scale(0.015625)"/>
      <path id="DejaVuSans-4d" d="M 628 4666 
L 1569 4666 
L 2759 1491 
L 3956 4666 
L 4897 4666 
L 4897 0 
L 4281 0 
L 4281 4097 
L 3078 897 
L 2444 897 
L 1241 4097 
L 1241 0 
L 628 0 
L 628 4666 
z
" transform="scale(0.015625)"/>
     </defs>
     <use xlink:href="#DejaVuSans-50"/>
     <use xlink:href="#DejaVuSans-72" x="58.552734"/>
     <use xlink:href="#DejaVuSans-65" x="97.416016"/>
     <use xlink:href="#DejaVuSans-63" x="158.939453"/>
     <use xlink:href="#DejaVuSans-69" x="213.919922"/>
     <use xlink:href="#DejaVuSans-70" x="241.703125"/>
     <use xlink:href="#DejaVuSans-69" x="305.179688"/>
     <use xlink:href="#DejaVuSans-74" x="332.962891"/>
     <use xlink:href="#DejaVuSans-61" x="372.171875"/>
     <use xlink:href="#DejaVuSans-74" x="433.451172"/>
     <use xlink:href="#DejaVuSans-69" x="472.660156"/>
     <use xlink:href="#DejaVuSans-6f" x="500.443359"/>
     <use xlink:href="#DejaVuSans-6e" x="561.625"/>
     <use xlink:href="#DejaVuSans-20" x="625.003906"/>
     <use xlink:href="#DejaVuSans-4f" x="656.791016"/>
     <use xlink:href="#DejaVuSans-76" x="735.501953"/>
     <use xlink:href="#DejaVuSans-65" x="794.681641"/>
     <use xlink:href="#DejaVuSans-72" x="856.205078"/>
     <use xlink:href="#DejaVuSans-20" x="897.318359"/>
     <use xlink:href="#DejaVuSans-74" x="929.105469"/>
     <use xlink:href="#DejaVuSans-68" x="968.314453"/>
     <use xlink:href="#DejaVuSans-65" x="1031.693359"/>
     <use xlink:href="#DejaVuSans-20" x="1093.216797"/>
     <use xlink:href="#DejaVuSans-4c" x="1125.003906"/>
     <use xlink:href="#DejaVuSans-61" x="1180.716797"/>
     <use xlink:href="#DejaVuSans-73" x="1241.996094"/>
     <use xlink:href="#DejaVuSans-74" x="1294.095703"/>
     <use xlink:href="#DejaVuSans-20" x="1333.304688"/>
     <use xlink:href="#DejaVuSans-31" x="1365.091797"/>
     <use xlink:href="#DejaVuSans-32" x="1428.714844"/>
     <use xlink:href="#DejaVuSans-20" x="1492.337891"/>
     <use xlink:href="#DejaVuSans-4d" x="1524.125"/>
     <use xlink:href="#DejaVuSans-6f" x="1610.404297"/>
     <use xlink:href="#DejaVuSans-6e" x="1671.585938"/>
     <use xlink:href="#DejaVuSans-74" x="1734.964844"/>
     <use xlink:href="#DejaVuSans-68" x="1774.173828"/>
     <use xlink:href="#DejaVuSans-73" x="1837.552734"/>
    </g>
   </g>
  </g>
 </g>
 <defs>
  <clipPath id="pa613a3b8e5">
   <rect x="39.86675" y="28.51845" width="751.68" height="349.92"/>
  </clipPath>
 </defs>
</svg>
